<?xml version="1.0" encoding="UTF-8" standalone="no"?>
<!-- Generator: Adobe Illustrator 16.0.0, SVG Export Plug-In . SVG Version: 6.00 Build 0)  -->

<svg
   xmlns:dc="http://purl.org/dc/elements/1.1/"
   xmlns:cc="http://creativecommons.org/ns#"
   xmlns:rdf="http://www.w3.org/1999/02/22-rdf-syntax-ns#"
   xmlns:svg="http://www.w3.org/2000/svg"
   xmlns="http://www.w3.org/2000/svg"
   xmlns:sodipodi="http://sodipodi.sourceforge.net/DTD/sodipodi-0.dtd"
   xmlns:inkscape="http://www.inkscape.org/namespaces/inkscape"
   version="1.1"
   id="Capa_1"
   x="0px"
   y="0px"
   width="44.187px"
   height="67.977px"
   viewBox="0 0 44.187 67.977"
   enable-background="new 0 0 44.187 67.977"
   xml:space="preserve"
   sodipodi:docname="biblat-logo.svg"
   inkscape:version="0.92.2 5c3e80d, 2017-08-06"><metadata
     id="metadata6222"><rdf:RDF><cc:Work
         rdf:about=""><dc:format>image/svg+xml</dc:format><dc:type
           rdf:resource="http://purl.org/dc/dcmitype/StillImage" /></cc:Work></rdf:RDF></metadata><defs
     id="defs6220" /><sodipodi:namedview
     pagecolor="#ffffff"
     bordercolor="#666666"
     borderopacity="1"
     objecttolerance="10"
     gridtolerance="10"
     guidetolerance="10"
     inkscape:pageopacity="0"
     inkscape:pageshadow="2"
     inkscape:window-width="2048"
     inkscape:window-height="1107"
     id="namedview6218"
     showgrid="false"
     inkscape:zoom="3.4717626"
     inkscape:cx="-29.465324"
     inkscape:cy="33.988499"
     inkscape:window-x="0"
     inkscape:window-y="1"
     inkscape:window-maximized="1"
     inkscape:current-layer="Capa_1" /><path
     d="M27.193,0v53.896c0,0,12.461,3.092,16.993,14.08V14.953C44.187,14.953,35.01,1.47,27.193,0z"
     id="path6211"
     style="fill:#ff8000;fill-opacity:0.94117647" /><path
     d="M21.642,7.588c0,0-5.666-2.604-9.292-2.376c0,0-0.113,52.796,0,53.136c0.115,0.342,25.041,5.777,31.837,9.629  c0,0-12.981-9.969-22.431-13.365L21.642,7.588z"
     id="path6213"
     style="fill:#ff8000;fill-opacity:0.94117647" /><path
     d="M6.57,11.107H0v52.68c0,0,32.245,1.307,44.187,4.189c0,0-25.832-6.455-37.729-7.703L6.57,11.107z"
     id="path6215"
     style="fill:#ff8000;fill-opacity:0.94117647" /></svg>