<?xml version="1.0" encoding="UTF-8" standalone="no"?>
<!-- Generator: Adobe Illustrator 16.0.0, SVG Export Plug-In . SVG Version: 6.00 Build 0)  -->

<svg
   xmlns:dc="http://purl.org/dc/elements/1.1/"
   xmlns:cc="http://creativecommons.org/ns#"
   xmlns:rdf="http://www.w3.org/1999/02/22-rdf-syntax-ns#"
   xmlns:svg="http://www.w3.org/2000/svg"
   xmlns="http://www.w3.org/2000/svg"
   xmlns:sodipodi="http://sodipodi.sourceforge.net/DTD/sodipodi-0.dtd"
   xmlns:inkscape="http://www.inkscape.org/namespaces/inkscape"
   version="1.1"
   id="Capa_1"
   x="0px"
   y="0px"
   width="218.223px"
   height="68.885px"
   viewBox="0 0 218.223 68.885"
   enable-background="new 0 0 218.223 68.885"
   xml:space="preserve"
   sodipodi:docname="biblat-single.svg"
   inkscape:version="0.92.2 5c3e80d, 2017-08-06"><metadata
     id="metadata4723"><rdf:RDF><cc:Work
         rdf:about=""><dc:format>image/svg+xml</dc:format><dc:type
           rdf:resource="http://purl.org/dc/dcmitype/StillImage" /></cc:Work></rdf:RDF></metadata><defs
     id="defs4721" /><sodipodi:namedview
     pagecolor="#ffffff"
     bordercolor="#666666"
     borderopacity="1"
     objecttolerance="10"
     gridtolerance="10"
     guidetolerance="10"
     inkscape:pageopacity="0"
     inkscape:pageshadow="2"
     inkscape:window-width="2048"
     inkscape:window-height="1107"
     id="namedview4719"
     showgrid="false"
     inkscape:zoom="6.919527"
     inkscape:cx="-6.5033347"
     inkscape:cy="34.442501"
     inkscape:window-x="0"
     inkscape:window-y="1"
     inkscape:window-maximized="1"
     inkscape:current-layer="Capa_1" /><g
     id="g4710"
     style="fill:#ff8000;fill-opacity:1"><path
       d="M75.78,31.771c2.333,1.011,4.376,2.394,6.135,4.146c1.758,1.759,3.138,3.805,4.146,6.135   c1.009,2.334,1.515,4.855,1.515,7.564c0,2.648-0.506,5.156-1.515,7.516c-1.009,2.363-2.389,4.438-4.146,6.223   c-1.759,1.785-3.802,3.184-6.135,4.189c-2.333,1.01-4.854,1.514-7.561,1.514c-2.648,0-5.156-0.504-7.518-1.514   c-2.364-1.006-4.438-2.404-6.219-4.189c-1.789-1.785-3.188-3.859-4.191-6.223c-1.009-2.359-1.515-4.867-1.515-7.516v-34.91h7.688   v15.554H68.22C70.927,30.261,73.447,30.765,75.78,31.771z M68.22,61.367c1.612,0,3.122-0.301,4.538-0.906   c1.407-0.605,2.648-1.441,3.713-2.506c1.068-1.066,1.903-2.316,2.508-3.758c0.604-1.443,0.905-2.969,0.905-4.58   c0-1.613-0.302-3.125-0.905-4.539c-0.604-1.41-1.439-2.648-2.508-3.715c-1.064-1.066-2.306-1.9-3.713-2.506   c-1.416-0.604-2.926-0.906-4.538-0.906H56.466v11.666c0,1.611,0.305,3.137,0.911,4.58c0.604,1.441,1.439,2.691,2.503,3.758   c1.065,1.064,2.319,1.9,3.762,2.506C65.079,61.066,66.606,61.367,68.22,61.367z"
       id="path4694"
       style="fill:#ff8000;fill-opacity:1" /><path
       d="M127.971,31.771c2.334,1.011,4.379,2.394,6.133,4.146c1.758,1.759,3.141,3.805,4.15,6.135   c1.01,2.334,1.514,4.855,1.514,7.564c0,2.648-0.504,5.156-1.514,7.516c-1.01,2.363-2.393,4.438-4.15,6.223   c-1.754,1.785-3.799,3.184-6.133,4.189c-2.332,1.01-4.854,1.514-7.561,1.514c-2.65,0-5.156-0.504-7.518-1.514   c-2.359-1.006-4.438-2.404-6.221-4.189c-1.787-1.785-3.184-3.859-4.191-6.223c-1.008-2.359-1.512-4.867-1.512-7.516v-34.91h7.691   v15.554h11.75C123.117,30.261,125.639,30.765,127.971,31.771z M120.41,61.367c1.613,0,3.123-0.301,4.537-0.906   c1.41-0.605,2.65-1.441,3.715-2.506c1.066-1.066,1.902-2.316,2.506-3.758c0.604-1.443,0.908-2.969,0.908-4.58   c0-1.613-0.305-3.125-0.908-4.539c-0.604-1.41-1.439-2.648-2.506-3.715c-1.064-1.066-2.305-1.9-3.715-2.506   c-1.414-0.604-2.924-0.906-4.537-0.906h-11.75v11.666c0,1.611,0.301,3.137,0.906,4.58c0.605,1.441,1.439,2.691,2.504,3.758   c1.066,1.064,2.32,1.9,3.76,2.506S118.797,61.367,120.41,61.367z"
       id="path4696"
       style="fill:#ff8000;fill-opacity:1" /><path
       d="M150.309,14.535v54.35h-7.693v-54.35H150.309z"
       id="path4698"
       style="fill:#ff8000;fill-opacity:1" /><path
       d="M218.223,61.195v7.689h-3.801c-2.65,0-5.154-0.502-7.518-1.51c-2.363-1.01-4.436-2.406-6.223-4.193   c-1.785-1.783-3.184-3.855-4.191-6.221c-1.008-2.361-1.51-4.869-1.51-7.518V14.535h7.688v23.328h15.555v7.691h-15.555v3.889   c0,1.615,0.307,3.139,0.91,4.58c0.604,1.439,1.438,2.693,2.506,3.76c1.066,1.064,2.318,1.9,3.756,2.504   c1.441,0.604,2.967,0.908,4.582,0.908H218.223z"
       id="path4700"
       style="fill:#ff8000;fill-opacity:1" /><path
       d="M190.789,41.881c-1.008-2.332-2.391-4.379-4.146-6.135c-1.76-1.755-3.805-3.138-6.137-4.146   c-2.334-1.009-4.854-1.512-7.559-1.512c-2.652,0-5.16,0.503-7.521,1.512c-2.359,1.009-4.436,2.392-6.221,4.146   c-1.787,1.756-3.182,3.803-4.191,6.135c-1.006,2.334-1.512,4.857-1.512,7.562c0,2.648,0.506,5.156,1.512,7.518   c1.01,2.365,2.404,4.438,4.191,6.221c1.785,1.787,3.861,3.184,6.221,4.193c2.361,1.008,4.869,1.51,7.521,1.51h7.615v-7.689h-7.615   c-1.617,0-3.145-0.305-4.582-0.908c-1.439-0.604-2.693-1.439-3.76-2.504c-1.064-1.066-1.898-2.32-2.506-3.76   c-0.604-1.441-0.904-2.965-0.904-4.58c0-1.611,0.301-3.123,0.904-4.539c0.607-1.408,1.441-2.646,2.506-3.713   c1.066-1.066,2.32-1.9,3.76-2.506c1.438-0.605,2.965-0.906,4.582-0.906c1.609,0,3.121,0.301,4.535,0.906   c1.41,0.605,2.648,1.439,3.715,2.506s1.9,2.305,2.506,3.713c0.605,1.416,0.908,2.928,0.908,4.539v3.086v8.666v7.689h7.689V49.443   C192.301,46.738,191.795,44.215,190.789,41.881z"
       id="path4702"
       style="fill:#ff8000;fill-opacity:1" /><g
       id="g4708"
       style="fill:#ff8000;fill-opacity:1"><rect
         x="90.426"
         y="41.486"
         width="7.607"
         height="27.398"
         id="rect4704"
         style="fill:#ff8000;fill-opacity:1" /><path
         d="M94.213,37.591l-0.002,0.004h0.049c0.006,0,0.016,0.001,0.021,0.001c0.008,0,0.016-0.001,0.021-0.001l3.73,0.001v-3.75    c0-2.072-1.68-3.752-3.752-3.752c-2.07,0-3.752,1.68-3.752,3.752C90.529,35.894,92.174,37.554,94.213,37.591z"
         id="path4706"
         style="fill:#ff8000;fill-opacity:1" /></g></g><path
     d="M27.193,0v53.896c0,0,12.461,3.092,16.993,14.08V14.953C44.187,14.953,35.01,1.47,27.193,0z"
     id="path4712"
     style="fill:#ff8000;fill-opacity:1" /><path
     d="M21.642,7.588c0,0-5.666-2.604-9.292-2.376c0,0-0.113,52.796,0,53.136c0.115,0.342,25.041,5.777,31.837,9.629  c0,0-12.981-9.969-22.431-13.365L21.642,7.588z"
     id="path4714"
     style="fill:#ff8000;fill-opacity:1" /><path
     d="M6.57,11.107H0v52.68c0,0,32.245,1.307,44.187,4.189c0,0-25.832-6.455-37.729-7.703L6.57,11.107z"
     id="path4716"
     style="fill:#ff8000;fill-opacity:1" /></svg>